<svg width="203" height="48" viewBox="0 0 203 48" fill="none" xmlns="http://www.w3.org/2000/svg">
<circle cx="24" cy="24" r="9" fill="url(#paint0_linear_302_384)"/>
<path d="M35.1336 9.85636C38.5794 12.5688 40.9165 16.4459 41.7059 20.7596C42.4954 25.0733 41.6829 29.5268 39.4211 33.2838C37.1593 37.0408 33.6038 39.8429 29.4222 41.1639C25.2405 42.4849 20.7205 42.2339 16.7108 40.4581C12.7012 38.6822 9.47773 35.5037 7.64581 31.5193C5.81388 27.535 5.4995 23.0189 6.7617 18.8192C8.0239 14.6194 10.7758 11.0249 14.5008 8.71063C18.2257 6.39635 22.6674 5.5215 26.9917 6.25036L26.1623 11.171C23.0368 10.6441 19.8265 11.2765 17.1342 12.9492C14.4419 14.6219 12.4528 17.2199 11.5405 20.2554C10.6283 23.2909 10.8555 26.555 12.1796 29.4348C13.5036 32.3146 15.8335 34.612 18.7316 35.8955C21.6296 37.1791 24.8966 37.3605 27.919 36.4057C30.9414 35.4509 33.5113 33.4256 35.146 30.7101C36.7808 27.9946 37.368 24.7757 36.7975 21.6579C36.2269 18.5401 34.5377 15.7378 32.0471 13.7773L35.1336 9.85636Z" fill="#E7EBF0"/>
<path d="M1.17387 31.414C0.0353861 27.9089 -0.280579 24.1886 0.250468 20.5417C0.781515 16.8948 2.14531 13.4191 4.23611 10.3842C6.32692 7.34934 9.08857 4.83671 12.307 3.04116C15.5254 1.2456 19.114 0.21535 22.7948 0.0302803C26.4755 -0.15479 30.1494 0.510291 33.5317 1.97396C36.914 3.43763 39.9138 5.66057 42.2984 8.47044C44.6831 11.2803 46.3887 14.6016 47.2829 18.1769C48.177 21.7522 48.2358 25.4853 47.4547 29.087L44.6401 28.4766C45.3275 25.3071 45.2758 22.0219 44.4889 18.8757C43.702 15.7294 42.2011 12.8067 40.1026 10.334C38.0041 7.86131 35.3643 5.90512 32.3879 4.61709C29.4115 3.32906 26.1785 2.74379 22.9394 2.90665C19.7004 3.06951 16.5423 3.97613 13.7101 5.55622C10.8779 7.13631 8.44769 9.34742 6.60778 12.0181C4.76787 14.6888 3.56773 17.7474 3.10041 20.9567C2.63309 24.166 2.91114 27.4398 3.913 30.5243L1.17387 31.414Z" fill="#E7EBF0"/>
<path d="M45.518 34.6289C43.6422 38.4266 40.7947 41.6601 37.2647 44.0012C33.7348 46.3422 29.6482 47.7074 25.4199 47.958C21.1917 48.2086 16.9724 47.3357 13.1907 45.428C9.40891 43.5203 6.1994 40.6457 3.88809 37.0962L6.30152 35.5247C8.33547 38.6482 11.1598 41.1778 14.4878 42.8566C17.8157 44.5354 21.5287 45.3035 25.2495 45.083C28.9704 44.8625 32.5666 43.6611 35.673 41.601C38.7793 39.5409 41.2851 36.6954 42.9359 33.3535L45.518 34.6289Z" fill="#E7EBF0"/>
<path d="M66.62 14.78L66.78 10.88H66.6L64 18.06L61.4 10.88H61.22L61.38 14.78V21H58.78V7.04H62.32L64.04 11.74H64.2L65.92 7.04H69.22V21H66.62V14.78ZM76.2722 21.24C74.5389 21.24 73.2255 20.76 72.3322 19.8C71.4389 18.84 70.9922 17.5333 70.9922 15.88C70.9922 15.04 71.1055 14.2867 71.3322 13.62C71.5722 12.94 71.9055 12.3667 72.3322 11.9C72.7722 11.42 73.2989 11.06 73.9122 10.82C74.5389 10.5667 75.2389 10.44 76.0122 10.44C76.7855 10.44 77.4789 10.5667 78.0922 10.82C78.7055 11.06 79.2255 11.4067 79.6522 11.86C80.0789 12.3133 80.4055 12.8667 80.6322 13.52C80.8722 14.16 80.9922 14.88 80.9922 15.68V16.56H73.9322V16.74C73.9322 17.4067 74.1389 17.9467 74.5522 18.36C74.9655 18.76 75.5722 18.96 76.3722 18.96C76.9855 18.96 77.5122 18.8467 77.9522 18.62C78.3922 18.38 78.7722 18.0667 79.0922 17.68L80.6922 19.42C80.2922 19.9133 79.7322 20.34 79.0122 20.7C78.2922 21.06 77.3789 21.24 76.2722 21.24ZM76.0322 12.56C75.3922 12.56 74.8789 12.76 74.4922 13.16C74.1189 13.5467 73.9322 14.0733 73.9322 14.74V14.9H78.0922V14.74C78.0922 14.06 77.9055 13.5267 77.5322 13.14C77.1722 12.7533 76.6722 12.56 76.0322 12.56ZM88.7844 21C87.7177 21 86.9244 20.72 86.4044 20.16C85.8844 19.6 85.6244 18.8867 85.6244 18.02V12.98H82.8244V10.68H84.6444C85.0844 10.68 85.3977 10.5933 85.5844 10.42C85.771 10.2467 85.8644 9.92667 85.8644 9.46V7.04H88.5844V10.68H92.6044V12.98H88.5844V18.7H92.6044V21H88.7844ZM103.717 21C103.103 21 102.61 20.8467 102.237 20.54C101.863 20.22 101.643 19.7667 101.577 19.18H101.477C101.29 19.86 100.917 20.3733 100.357 20.72C99.8099 21.0667 99.1366 21.24 98.3366 21.24C97.3366 21.24 96.5299 20.9733 95.9166 20.44C95.3166 19.8933 95.0166 19.1333 95.0166 18.16C95.0166 17.08 95.4099 16.28 96.1966 15.76C96.9832 15.24 98.1366 14.98 99.6566 14.98H101.317V14.46C101.317 13.8467 101.17 13.3867 100.877 13.08C100.597 12.76 100.117 12.6 99.4366 12.6C98.8099 12.6 98.3032 12.72 97.9166 12.96C97.5299 13.2 97.1966 13.5133 96.9166 13.9L95.2966 12.46C95.6432 11.8733 96.1832 11.3933 96.9166 11.02C97.6632 10.6333 98.6166 10.44 99.7766 10.44C101.19 10.44 102.29 10.7667 103.077 11.42C103.877 12.06 104.277 13.0333 104.277 14.34V18.86H105.417V21H103.717ZM99.4566 19.3C99.9766 19.3 100.417 19.1733 100.777 18.92C101.137 18.6667 101.317 18.3 101.317 17.82V16.58H99.7366C98.5232 16.58 97.9166 16.9867 97.9166 17.8V18.2C97.9166 18.56 98.0566 18.8333 98.3366 19.02C98.6166 19.2067 98.9899 19.3 99.4566 19.3ZM107.389 18.7H110.429V12.98H107.189V10.68H110.429V9.18C110.429 8.3 110.682 7.58667 111.189 7.04C111.709 6.48 112.509 6.2 113.589 6.2H117.089V8.5H113.389V10.68H117.089V12.98H113.389V18.7H116.629V21H107.389V18.7ZM119.441 18.7H121.821V12.98H119.441V10.68H124.781V13.6H124.921C125.014 13.2267 125.141 12.8667 125.301 12.52C125.474 12.16 125.688 11.8467 125.941 11.58C126.208 11.3 126.528 11.08 126.901 10.92C127.274 10.76 127.714 10.68 128.221 10.68H129.201V13.4H127.001C126.268 13.4 125.714 13.62 125.341 14.06C124.968 14.4867 124.781 15.0133 124.781 15.64V18.7H128.181V21H119.441V18.7ZM139.693 21C139.08 21 138.586 20.8467 138.213 20.54C137.84 20.22 137.62 19.7667 137.553 19.18H137.453C137.266 19.86 136.893 20.3733 136.333 20.72C135.786 21.0667 135.113 21.24 134.313 21.24C133.313 21.24 132.506 20.9733 131.893 20.44C131.293 19.8933 130.993 19.1333 130.993 18.16C130.993 17.08 131.386 16.28 132.173 15.76C132.96 15.24 134.113 14.98 135.633 14.98H137.293V14.46C137.293 13.8467 137.146 13.3867 136.853 13.08C136.573 12.76 136.093 12.6 135.413 12.6C134.786 12.6 134.28 12.72 133.893 12.96C133.506 13.2 133.173 13.5133 132.893 13.9L131.273 12.46C131.62 11.8733 132.16 11.3933 132.893 11.02C133.64 10.6333 134.593 10.44 135.753 10.44C137.166 10.44 138.266 10.7667 139.053 11.42C139.853 12.06 140.253 13.0333 140.253 14.34V18.86H141.393V21H139.693ZM135.433 19.3C135.953 19.3 136.393 19.1733 136.753 18.92C137.113 18.6667 137.293 18.3 137.293 17.82V16.58H135.713C134.5 16.58 133.893 16.9867 133.893 17.8V18.2C133.893 18.56 134.033 18.8333 134.313 19.02C134.593 19.2067 134.966 19.3 135.433 19.3ZM142.545 21V10.68H144.925V12.2H145.065C145.225 11.72 145.452 11.3067 145.745 10.96C146.052 10.6133 146.479 10.44 147.025 10.44C148.025 10.44 148.639 11.0267 148.865 12.2H148.985C149.065 11.96 149.165 11.7333 149.285 11.52C149.405 11.3067 149.552 11.12 149.725 10.96C149.899 10.8 150.105 10.6733 150.345 10.58C150.585 10.4867 150.865 10.44 151.185 10.44C152.625 10.44 153.345 11.5 153.345 13.62V21H150.965V13.92C150.965 13.44 150.879 13.1067 150.705 12.92C150.545 12.72 150.332 12.62 150.065 12.62C149.812 12.62 149.592 12.7067 149.405 12.88C149.232 13.04 149.145 13.2933 149.145 13.64V21H146.745V13.92C146.745 13.44 146.665 13.1067 146.505 12.92C146.359 12.72 146.152 12.62 145.885 12.62C145.619 12.62 145.392 12.7067 145.205 12.88C145.019 13.04 144.925 13.2933 144.925 13.64V21H142.545ZM160.218 21.24C158.484 21.24 157.171 20.76 156.278 19.8C155.384 18.84 154.938 17.5333 154.938 15.88C154.938 15.04 155.051 14.2867 155.278 13.62C155.518 12.94 155.851 12.3667 156.278 11.9C156.718 11.42 157.244 11.06 157.858 10.82C158.484 10.5667 159.184 10.44 159.958 10.44C160.731 10.44 161.424 10.5667 162.038 10.82C162.651 11.06 163.171 11.4067 163.598 11.86C164.024 12.3133 164.351 12.8667 164.578 13.52C164.818 14.16 164.938 14.88 164.938 15.68V16.56H157.878V16.74C157.878 17.4067 158.084 17.9467 158.498 18.36C158.911 18.76 159.518 18.96 160.318 18.96C160.931 18.96 161.458 18.8467 161.898 18.62C162.338 18.38 162.718 18.0667 163.038 17.68L164.638 19.42C164.238 19.9133 163.678 20.34 162.958 20.7C162.238 21.06 161.324 21.24 160.218 21.24ZM159.978 12.56C159.338 12.56 158.824 12.76 158.438 13.16C158.064 13.5467 157.878 14.0733 157.878 14.74V14.9H162.038V14.74C162.038 14.06 161.851 13.5267 161.478 13.14C161.118 12.7533 160.618 12.56 159.978 12.56Z" fill="#E7EBF0"/>
<path d="M64.678 38L61.808 34.388L62.914 33.716L66.26 38H64.678ZM59.302 38V30.58H60.646V38H59.302ZM60.24 34.864V33.716H62.69V34.864H60.24ZM63.026 34.444L61.78 34.276L64.622 30.58H66.064L63.026 34.444ZM71.6032 38.084C70.9872 38.084 70.4225 37.944 69.9092 37.664C69.4052 37.3747 68.9992 36.95 68.6912 36.39C68.3925 35.83 68.2432 35.13 68.2432 34.29C68.2432 33.45 68.3879 32.75 68.6772 32.19C68.9759 31.63 69.3772 31.21 69.8812 30.93C70.3945 30.65 70.9685 30.51 71.6032 30.51C72.3312 30.51 72.9752 30.6687 73.5352 30.986C74.0952 31.3033 74.5385 31.7467 74.8652 32.316C75.1919 32.876 75.3552 33.534 75.3552 34.29C75.3552 35.046 75.1919 35.7087 74.8652 36.278C74.5385 36.8473 74.0952 37.2907 73.5352 37.608C72.9752 37.9253 72.3312 38.084 71.6032 38.084ZM67.6692 40.716V30.58H68.9572V32.582L68.8732 34.304L69.0132 36.026V40.716H67.6692ZM71.4912 36.908C71.9672 36.908 72.3919 36.8007 72.7652 36.586C73.1479 36.3713 73.4465 36.068 73.6612 35.676C73.8852 35.2747 73.9972 34.8127 73.9972 34.29C73.9972 33.758 73.8852 33.3007 73.6612 32.918C73.4465 32.526 73.1479 32.2227 72.7652 32.008C72.3919 31.7933 71.9672 31.686 71.4912 31.686C71.0245 31.686 70.5999 31.7933 70.2172 32.008C69.8439 32.2227 69.5452 32.526 69.3212 32.918C69.1065 33.3007 68.9992 33.758 68.9992 34.29C68.9992 34.8127 69.1065 35.2747 69.3212 35.676C69.5452 36.068 69.8439 36.3713 70.2172 36.586C70.5999 36.8007 71.0245 36.908 71.4912 36.908ZM81.7895 38V36.432L81.7195 36.138V33.464C81.7195 32.8947 81.5515 32.456 81.2155 32.148C80.8888 31.8307 80.3942 31.672 79.7315 31.672C79.2928 31.672 78.8635 31.7467 78.4435 31.896C78.0235 32.036 77.6688 32.2273 77.3795 32.47L76.8195 31.462C77.2022 31.154 77.6595 30.9207 78.1915 30.762C78.7328 30.594 79.2975 30.51 79.8855 30.51C80.9028 30.51 81.6868 30.7573 82.2375 31.252C82.7882 31.7467 83.0635 32.5027 83.0635 33.52V38H81.7895ZM79.3535 38.084C78.8028 38.084 78.3175 37.9907 77.8975 37.804C77.4868 37.6173 77.1695 37.3607 76.9455 37.034C76.7215 36.698 76.6095 36.32 76.6095 35.9C76.6095 35.4987 76.7028 35.1347 76.8895 34.808C77.0855 34.4813 77.3982 34.22 77.8275 34.024C78.2662 33.828 78.8542 33.73 79.5915 33.73H81.9435V34.696H79.6475C78.9755 34.696 78.5228 34.808 78.2895 35.032C78.0562 35.256 77.9395 35.5267 77.9395 35.844C77.9395 36.208 78.0842 36.502 78.3735 36.726C78.6628 36.9407 79.0642 37.048 79.5775 37.048C80.0815 37.048 80.5202 36.936 80.8935 36.712C81.2762 36.488 81.5515 36.1613 81.7195 35.732L81.9855 36.656C81.8082 37.0947 81.4955 37.4447 81.0475 37.706C80.5995 37.958 80.0348 38.084 79.3535 38.084ZM90.5516 37.37V31.756H87.3316L87.2616 33.184C87.243 33.6507 87.2103 34.1033 87.1636 34.542C87.1263 34.9713 87.061 35.368 86.9676 35.732C86.8836 36.096 86.7576 36.3947 86.5896 36.628C86.4216 36.8613 86.1976 37.006 85.9176 37.062L84.5876 36.824C84.877 36.8333 85.1103 36.74 85.2876 36.544C85.465 36.3387 85.6003 36.0587 85.6936 35.704C85.7963 35.3493 85.871 34.948 85.9176 34.5C85.9643 34.0427 86.0016 33.5713 86.0296 33.086L86.1416 30.58H91.8956V37.37H90.5516ZM84.2936 39.722V36.824H93.0296V39.722H91.7696V38H85.5676V39.722H84.2936ZM94.7805 38V30.58H96.1245V38H94.7805ZM95.4525 29.152C95.1912 29.152 94.9718 29.068 94.7945 28.9C94.6265 28.732 94.5425 28.5267 94.5425 28.284C94.5425 28.032 94.6265 27.822 94.7945 27.654C94.9718 27.486 95.1912 27.402 95.4525 27.402C95.7138 27.402 95.9285 27.486 96.0965 27.654C96.2738 27.8127 96.3625 28.0133 96.3625 28.256C96.3625 28.508 96.2785 28.7227 96.1105 28.9C95.9425 29.068 95.7232 29.152 95.4525 29.152ZM107.551 38L105.185 34.388L106.291 33.716L109.147 38H107.551ZM103.645 34.864V33.716H106.053V34.864H103.645ZM106.417 34.444L105.143 34.276L107.509 30.58H108.951L106.417 34.444ZM99.2214 38H97.6254L100.467 33.716L101.573 34.388L99.2214 38ZM104.051 38H102.707V30.58H104.051V38ZM103.113 34.864H100.719V33.716H103.113V34.864ZM100.355 34.444L97.8214 30.58H99.2494L101.615 34.276L100.355 34.444ZM116.002 38L113.132 34.388L114.238 33.716L117.584 38H116.002ZM110.626 38V30.58H111.97V38H110.626ZM111.564 34.864V33.716H114.014V34.864H111.564ZM114.35 34.444L113.104 34.276L115.946 30.58H117.388L114.35 34.444ZM123.407 38V36.432L123.337 36.138V33.464C123.337 32.8947 123.169 32.456 122.833 32.148C122.506 31.8307 122.011 31.672 121.349 31.672C120.91 31.672 120.481 31.7467 120.061 31.896C119.641 32.036 119.286 32.2273 118.997 32.47L118.437 31.462C118.819 31.154 119.277 30.9207 119.809 30.762C120.35 30.594 120.915 30.51 121.503 30.51C122.52 30.51 123.304 30.7573 123.855 31.252C124.405 31.7467 124.681 32.5027 124.681 33.52V38H123.407ZM120.971 38.084C120.42 38.084 119.935 37.9907 119.515 37.804C119.104 37.6173 118.787 37.3607 118.563 37.034C118.339 36.698 118.227 36.32 118.227 35.9C118.227 35.4987 118.32 35.1347 118.507 34.808C118.703 34.4813 119.015 34.22 119.445 34.024C119.883 33.828 120.471 33.73 121.209 33.73H123.561V34.696H121.265C120.593 34.696 120.14 34.808 119.907 35.032C119.673 35.256 119.557 35.5267 119.557 35.844C119.557 36.208 119.701 36.502 119.991 36.726C120.28 36.9407 120.681 37.048 121.195 37.048C121.699 37.048 122.137 36.936 122.511 36.712C122.893 36.488 123.169 36.1613 123.337 35.732L123.603 36.656C123.425 37.0947 123.113 37.4447 122.665 37.706C122.217 37.958 121.652 38.084 120.971 38.084ZM129.196 34.906C129.196 34.542 129.257 34.2247 129.378 33.954C129.499 33.6833 129.649 33.4407 129.826 33.226C130.013 33.0113 130.213 32.8153 130.428 32.638C130.643 32.4513 130.843 32.2693 131.03 32.092C131.217 31.9053 131.366 31.7093 131.478 31.504C131.599 31.2987 131.66 31.0607 131.66 30.79C131.66 30.342 131.483 29.978 131.128 29.698C130.773 29.418 130.283 29.278 129.658 29.278C129.098 29.278 128.613 29.3713 128.202 29.558C127.791 29.7447 127.441 30.02 127.152 30.384L126.13 29.656C126.522 29.1613 127.021 28.7787 127.628 28.508C128.235 28.228 128.944 28.088 129.756 28.088C130.428 28.088 131.011 28.1907 131.506 28.396C132.001 28.592 132.383 28.8767 132.654 29.25C132.934 29.614 133.074 30.0573 133.074 30.58C133.074 30.972 133.013 31.308 132.892 31.588C132.771 31.868 132.617 32.1153 132.43 32.33C132.243 32.5447 132.043 32.7453 131.828 32.932C131.623 33.1187 131.427 33.3053 131.24 33.492C131.053 33.6787 130.899 33.884 130.778 34.108C130.657 34.332 130.596 34.598 130.596 34.906H129.196ZM129.91 38.084C129.649 38.084 129.429 37.9953 129.252 37.818C129.084 37.6407 129 37.4307 129 37.188C129 36.9267 129.084 36.712 129.252 36.544C129.429 36.376 129.649 36.292 129.91 36.292C130.171 36.292 130.386 36.376 130.554 36.544C130.722 36.712 130.806 36.9267 130.806 37.188C130.806 37.4307 130.722 37.6407 130.554 37.818C130.386 37.9953 130.171 38.084 129.91 38.084ZM143.837 38V35.396L144.047 35.648H141.681C140.692 35.648 139.917 35.438 139.357 35.018C138.806 34.598 138.531 33.9867 138.531 33.184C138.531 32.3253 138.825 31.6767 139.413 31.238C140.01 30.7993 140.804 30.58 141.793 30.58H145.041V38H143.837ZM138.461 38L140.477 35.158H141.863L139.903 38H138.461ZM143.837 34.976V31.378L144.047 31.756H141.835C141.219 31.756 140.743 31.8727 140.407 32.106C140.071 32.33 139.903 32.7033 139.903 33.226C139.903 34.1967 140.528 34.682 141.779 34.682H144.047L143.837 34.976ZM151.423 38V30.58H158.297V38H156.953V31.42L157.275 31.756H152.445L152.767 31.42V38H151.423ZM164.076 38.084C163.329 38.084 162.666 37.9207 162.088 37.594C161.509 37.2673 161.052 36.8193 160.716 36.25C160.38 35.6713 160.212 35.018 160.212 34.29C160.212 33.5527 160.38 32.8993 160.716 32.33C161.052 31.7607 161.509 31.3173 162.088 31C162.666 30.6733 163.329 30.51 164.076 30.51C164.813 30.51 165.471 30.6733 166.05 31C166.638 31.3173 167.095 31.7607 167.422 32.33C167.758 32.89 167.926 33.5433 167.926 34.29C167.926 35.0273 167.758 35.6807 167.422 36.25C167.095 36.8193 166.638 37.2673 166.05 37.594C165.471 37.9207 164.813 38.084 164.076 38.084ZM164.076 36.908C164.552 36.908 164.976 36.8007 165.35 36.586C165.732 36.3713 166.031 36.068 166.246 35.676C166.46 35.2747 166.568 34.8127 166.568 34.29C166.568 33.758 166.46 33.3007 166.246 32.918C166.031 32.526 165.732 32.2227 165.35 32.008C164.976 31.7933 164.552 31.686 164.076 31.686C163.6 31.686 163.175 31.7933 162.802 32.008C162.428 32.2227 162.13 32.526 161.906 32.918C161.682 33.3007 161.57 33.758 161.57 34.29C161.57 34.8127 161.682 35.2747 161.906 35.676C162.13 36.068 162.428 36.3713 162.802 36.586C163.175 36.8007 163.6 36.908 164.076 36.908ZM173.296 38.112C172.68 38.112 172.134 38.014 171.658 37.818C171.192 37.622 170.79 37.3327 170.454 36.95C170.118 36.558 169.862 36.068 169.684 35.48C169.516 34.8827 169.432 34.1827 169.432 33.38C169.432 32.7453 169.488 32.176 169.6 31.672C169.712 31.168 169.871 30.72 170.076 30.328C170.291 29.936 170.552 29.5953 170.86 29.306C171.178 29.0167 171.532 28.7787 171.924 28.592C172.326 28.396 172.764 28.2467 173.24 28.144L176.628 27.388L176.824 28.634L173.702 29.306C173.516 29.3433 173.292 29.3993 173.03 29.474C172.769 29.5487 172.503 29.6653 172.232 29.824C171.962 29.9733 171.71 30.1833 171.476 30.454C171.243 30.7247 171.056 31.0793 170.916 31.518C170.776 31.9473 170.706 32.4793 170.706 33.114C170.706 33.2913 170.711 33.4267 170.72 33.52C170.73 33.6133 170.739 33.7067 170.748 33.8C170.767 33.8933 170.781 34.0333 170.79 34.22L170.23 33.646C170.38 33.1327 170.618 32.6847 170.944 32.302C171.271 31.9193 171.663 31.6253 172.12 31.42C172.587 31.2053 173.096 31.098 173.646 31.098C174.337 31.098 174.948 31.2473 175.48 31.546C176.022 31.8447 176.446 32.2553 176.754 32.778C177.062 33.3007 177.216 33.898 177.216 34.57C177.216 35.2513 177.053 35.8627 176.726 36.404C176.409 36.936 175.956 37.356 175.368 37.664C174.78 37.9627 174.09 38.112 173.296 38.112ZM173.422 36.992C173.898 36.992 174.318 36.8893 174.682 36.684C175.046 36.4693 175.331 36.1847 175.536 35.83C175.742 35.466 175.844 35.06 175.844 34.612C175.844 34.164 175.742 33.7673 175.536 33.422C175.331 33.0767 175.046 32.806 174.682 32.61C174.318 32.4047 173.889 32.302 173.394 32.302C172.928 32.302 172.508 32.4 172.134 32.596C171.761 32.7827 171.472 33.0487 171.266 33.394C171.061 33.73 170.958 34.122 170.958 34.57C170.958 35.018 171.061 35.4287 171.266 35.802C171.481 36.166 171.77 36.4553 172.134 36.67C172.508 36.8847 172.937 36.992 173.422 36.992ZM183.618 38V36.432L183.548 36.138V33.464C183.548 32.8947 183.38 32.456 183.044 32.148C182.717 31.8307 182.222 31.672 181.56 31.672C181.121 31.672 180.692 31.7467 180.272 31.896C179.852 32.036 179.497 32.2273 179.208 32.47L178.648 31.462C179.03 31.154 179.488 30.9207 180.02 30.762C180.561 30.594 181.126 30.51 181.714 30.51C182.731 30.51 183.515 30.7573 184.066 31.252C184.616 31.7467 184.892 32.5027 184.892 33.52V38H183.618ZM181.182 38.084C180.631 38.084 180.146 37.9907 179.726 37.804C179.315 37.6173 178.998 37.3607 178.774 37.034C178.55 36.698 178.438 36.32 178.438 35.9C178.438 35.4987 178.531 35.1347 178.718 34.808C178.914 34.4813 179.226 34.22 179.656 34.024C180.094 33.828 180.682 33.73 181.42 33.73H183.772V34.696H181.476C180.804 34.696 180.351 34.808 180.118 35.032C179.884 35.256 179.768 35.5267 179.768 35.844C179.768 36.208 179.912 36.502 180.202 36.726C180.491 36.9407 180.892 37.048 181.406 37.048C181.91 37.048 182.348 36.936 182.722 36.712C183.104 36.488 183.38 36.1613 183.548 35.732L183.814 36.656C183.636 37.0947 183.324 37.4447 182.876 37.706C182.428 37.958 181.863 38.084 181.182 38.084ZM191.988 34.962C191.596 35.1487 191.19 35.298 190.77 35.41C190.359 35.5127 189.934 35.564 189.496 35.564C188.6 35.564 187.89 35.354 187.368 34.934C186.854 34.514 186.598 33.8653 186.598 32.988V30.58H187.942V32.904C187.942 33.436 188.105 33.828 188.432 34.08C188.768 34.332 189.216 34.458 189.776 34.458C190.13 34.458 190.494 34.4113 190.868 34.318C191.25 34.2247 191.624 34.094 191.988 33.926V34.962ZM191.89 38V30.58H193.234V38H191.89ZM196.221 40.8C195.866 40.8 195.521 40.7393 195.185 40.618C194.849 40.506 194.56 40.338 194.317 40.114L194.891 39.106C195.078 39.2833 195.283 39.4187 195.507 39.512C195.731 39.6053 195.969 39.652 196.221 39.652C196.548 39.652 196.818 39.568 197.033 39.4C197.248 39.232 197.448 38.9333 197.635 38.504L198.097 37.482L198.237 37.314L201.149 30.58H202.465L198.867 38.742C198.652 39.2647 198.41 39.6753 198.139 39.974C197.878 40.2727 197.588 40.4827 197.271 40.604C196.954 40.7347 196.604 40.8 196.221 40.8ZM197.985 38.238L194.597 30.58H195.997L198.881 37.188L197.985 38.238Z" fill="#E7EBF0"/>
<defs>
<linearGradient id="paint0_linear_302_384" x1="9.42857" y1="32.5714" x2="41.5714" y2="14.5714" gradientUnits="userSpaceOnUse">
<stop stop-color="#0538FF"/>
<stop offset="1" stop-color="#40FFC7"/>
</linearGradient>
</defs>
</svg>
